<?xml version="1.0" standalone="no"?>
<!DOCTYPE svg PUBLIC "-//W3C//DTD SVG 20010904//EN"
 "http://www.w3.org/TR/2001/REC-SVG-20010904/DTD/svg10.dtd">
<svg version="1.0" xmlns="http://www.w3.org/2000/svg"
 width="248.000000pt" height="210.000000pt" viewBox="0 0 248.000000 210.000000"
 preserveAspectRatio="xMidYMid meet">

<g transform="translate(0.000000,210.000000) scale(0.100000,-0.100000)"
fill="#000000" stroke="none">
<path d="M1016 2048 c4 -29 17 -73 29 -98 12 -25 27 -56 34 -70 10 -21 11 -14
6 45 -3 39 -5 86 -5 105 0 29 -6 39 -29 53 -16 9 -32 17 -35 17 -4 0 -4 -24 0
-52z"/>
<path d="M1231 1909 c2 -149 15 -205 21 -86 3 61 3 62 34 65 27 3 35 -2 54
-32 12 -20 26 -36 31 -36 6 0 8 -4 4 -9 -3 -5 -1 -12 5 -16 16 -10 12 22 -5
39 -8 8 -15 19 -15 25 0 6 -4 11 -9 11 -5 0 -7 8 -4 18 4 16 -2 18 -44 18
l-48 -1 0 69 0 69 40 1 c68 3 103 -11 110 -43 8 -37 -3 -81 -20 -81 -8 0 -16
-4 -19 -9 -10 -15 38 1 52 17 6 9 12 33 12 54 0 54 -32 72 -127 75 l-74 2 2
-150z"/>
<path d="M1534 1908 l1 -153 95 -1 c52 0 66 1 30 3 -108 5 -105 4 -105 70 0
32 5 61 10 65 6 4 38 8 73 8 37 0 62 4 62 11 0 6 -21 10 -52 9 -95 -3 -89 -7
-86 62 l3 61 78 -2 c49 -1 77 2 77 8 0 7 -34 11 -94 11 l-94 0 2 -152z"/>
<path d="M1813 1920 c1 -91 5 -140 11 -140 6 0 5 -4 -3 -9 -9 -6 -10 -11 -2
-15 15 -10 20 8 23 79 l3 60 84 3 c48 2 89 -2 94 -7 6 -6 9 -40 8 -76 -2 -41
2 -65 8 -65 7 0 11 52 11 155 0 97 -4 155 -10 155 -6 0 -10 -26 -10 -59 0 -89
3 -87 -98 -81 l-87 5 -3 68 c-2 47 -7 67 -16 67 -11 0 -13 -30 -13 -140z"/>
<path d="M2245 2030 c-8 -16 -15 -38 -15 -50 0 -12 -4 -19 -8 -16 -12 7 -35
-61 -26 -75 4 -8 3 -9 -4 -5 -11 6 -14 0 -11 -20 0 -4 -3 -10 -8 -13 -12 -8
-45 -92 -39 -98 10 -11 26 10 38 48 6 23 17 43 22 45 6 2 41 5 78 7 l67 3 21
-48 c24 -55 44 -74 34 -31 -7 27 -34 94 -76 183 -12 25 -22 47 -23 50 -6 26
-18 50 -25 50 -5 0 -16 -13 -25 -30z m69 -155 c-6 -6 -32 -9 -57 -7 -38 3 -46
7 -50 28 -2 13 -1 21 3 19 8 -5 28 36 35 72 2 12 9 29 16 36 11 11 18 0 39
-62 20 -58 24 -78 14 -86z"/>
<path d="M1119 2043 c-4 -41 -4 -72 2 -111 5 -40 7 -35 8 36 0 45 -1 82 -4 82
-3 0 -5 -3 -6 -7z"/>
<path d="M728 1859 c-10 -5 -18 -7 -18 -3 0 8 -69 -44 -93 -71 -27 -30 -47
-80 -47 -118 0 -35 20 -63 34 -49 4 4 6 0 4 -8 -2 -11 7 -16 33 -18 31 -3 40
2 58 27 13 18 21 44 21 70 0 27 7 48 19 60 11 11 16 23 13 27 -4 4 -2 4 5 0
12 -6 85 33 97 53 18 29 -86 54 -126 30z"/>
<path d="M890 1786 c-25 -7 -55 -19 -67 -27 -24 -14 -40 -69 -27 -90 4 -7 3
-10 -3 -6 -14 9 -7 -87 9 -128 26 -66 102 -136 129 -119 7 4 9 3 5 -4 -10 -17
78 -45 124 -39 66 9 67 10 69 182 2 141 0 159 -18 189 -11 18 -32 38 -46 44
-33 15 -117 14 -175 -2z"/>
<path d="M1400 1781 c0 -5 7 -15 17 -22 15 -13 15 -12 4 9 -12 23 -21 28 -21
13z"/>
<path d="M1356 1631 c17 -4 37 -11 45 -15 8 -4 5 0 -5 8 -11 9 -31 16 -45 15
-24 -1 -24 -2 5 -8z"/>
<path d="M1480 1629 c0 -9 116 -16 169 -11 77 8 41 17 -64 17 -58 0 -105 -3
-105 -6z"/>
<path d="M1700 1630 c0 -5 5 -10 11 -10 5 0 7 5 4 10 -3 6 -8 10 -11 10 -2 0
-4 -4 -4 -10z"/>
<path d="M1799 1625 c-6 -64 1 -270 10 -284 10 -16 171 -26 171 -11 0 5 -35
10 -77 12 l-78 3 -2 80 c-1 44 -3 106 -5 137 -2 31 -1 56 2 56 39 -3 162 4
157 8 -11 11 -177 10 -178 -1z"/>
<path d="M1239 1603 c-18 -22 -25 -73 -10 -73 6 0 10 -5 9 -12 -2 -6 26 -22
61 -35 82 -29 103 -48 99 -87 -3 -36 -22 -52 -75 -66 l-38 -10 43 4 c58 6 89
35 87 81 -1 40 -20 63 -54 70 -49 9 -111 38 -111 51 0 8 -4 14 -10 14 -16 0
-6 44 14 63 10 9 15 17 9 17 -5 0 -16 -8 -24 -17z"/>
<path d="M1591 1466 c-1 -75 3 -137 8 -140 5 -4 10 49 10 134 1 82 -2 140 -8
140 -5 0 -10 -58 -10 -134z"/>
<path d="M552 1533 c-1 -29 0 -53 3 -53 3 0 21 14 40 32 37 33 32 54 -9 42
-10 -4 -16 -2 -13 2 3 5 0 14 -7 20 -9 8 -12 -2 -14 -43z"/>
<path d="M720 1565 c-6 -8 -9 -19 -5 -25 4 -6 2 -9 -3 -8 -11 4 -96 -101 -88
-109 3 -4 -1 -15 -11 -25 -9 -10 -13 -18 -9 -18 3 0 -1 -12 -10 -26 -13 -18
-19 -55 -22 -130 -4 -93 -3 -104 13 -110 13 -5 25 1 42 22 33 41 115 202 108
213 -3 5 -1 12 5 16 5 3 10 43 9 91 0 46 -4 82 -8 79 -5 -2 -6 7 -3 20 5 28 0
31 -18 10z"/>
<path d="M1868 1483 c12 -2 32 -2 45 0 12 2 2 4 -23 4 -25 0 -35 -2 -22 -4z"/>
<path d="M582 1443 c-21 -8 -42 -60 -48 -115 -5 -57 1 -63 11 -10 3 18 16 55
29 83 13 27 23 49 23 48 -1 0 -8 -3 -15 -6z"/>
<path d="M800 1345 c0 -67 22 -141 39 -131 5 4 11 2 13 -3 1 -5 15 -13 31 -16
l27 -7 0 83 -1 84 -45 28 c-25 15 -49 27 -55 27 -5 0 -9 -29 -9 -65z"/>
<path d="M1022 1339 c-37 -11 -39 -15 -45 -84 -5 -66 0 -80 21 -57 10 10 13
12 8 5 -13 -20 5 -16 28 6 12 11 39 26 61 33 36 12 40 16 43 52 2 25 0 36 -7
31 -7 -3 -8 0 -5 9 5 13 -1 16 -32 15 -22 0 -54 -5 -72 -10z"/>
<path d="M516 1218 c-9 -36 -7 -98 4 -98 5 0 7 -7 4 -15 -4 -8 -1 -15 5 -15 7
0 9 23 5 73 -7 81 -9 88 -18 55z"/>
<path d="M1318 1202 c-10 -2 -18 -8 -18 -13 0 -5 -6 -9 -13 -9 -18 0 -49 -34
-40 -43 3 -4 1 -7 -5 -7 -15 0 -32 -63 -26 -98 9 -55 14 -69 36 -94 45 -50
119 -68 171 -42 38 20 77 83 83 134 5 42 -14 98 -49 143 -16 19 -75 43 -84 33
-4 -3 0 -6 7 -6 20 0 80 -43 80 -57 0 -7 5 -13 11 -13 5 0 7 -5 4 -10 -4 -6
-2 -16 3 -23 7 -7 8 -36 3 -75 -6 -49 -13 -68 -36 -92 -15 -16 -32 -27 -37
-24 -4 3 -8 1 -8 -5 0 -12 -63 -5 -93 11 -69 36 -93 138 -51 219 14 29 55 59
78 59 8 0 17 4 20 8 5 9 -7 10 -36 4z"/>
<path d="M1602 1057 c-2 -98 1 -158 8 -162 7 -4 10 38 10 123 0 99 3 131 13
135 8 3 21 -7 30 -21 21 -37 57 -77 57 -65 0 6 -13 26 -30 44 -16 19 -35 47
-41 62 -7 16 -17 26 -25 23 -7 -3 -14 0 -16 6 -2 6 -5 -59 -6 -145z"/>
<path d="M1060 1161 c-36 -21 -64 -43 -62 -50 1 -6 -3 -11 -9 -11 -6 0 -9 -12
-7 -27 3 -31 13 -32 111 -17 39 5 48 11 53 31 7 27 -1 92 -13 104 -5 5 -37 -9
-73 -30z"/>
<path d="M1834 1180 c0 -11 4 -20 8 -20 4 0 8 9 8 20 0 11 -4 20 -8 20 -4 0
-8 -9 -8 -20z"/>
<path d="M440 1109 c-22 -28 -28 -40 -16 -36 10 4 15 3 11 -3 -3 -6 -13 -10
-21 -10 -8 0 -14 -9 -14 -20 0 -10 -9 -59 -21 -107 -11 -48 -21 -105 -22 -125
-1 -21 -5 -38 -9 -38 -5 0 -8 -17 -8 -38 0 -21 -4 -42 -9 -48 -8 -9 -24 -67
-36 -132 -4 -18 -2 -32 3 -32 17 0 33 27 36 62 2 19 7 45 12 59 4 13 8 29 9
34 1 6 7 23 13 38 7 16 13 44 15 62 1 18 4 31 6 29 7 -6 41 77 36 86 -3 5 -2
10 3 12 4 1 23 33 41 69 l33 66 -14 57 -14 57 -34 -42z"/>
<path d="M826 1135 c-12 -33 40 -105 65 -89 8 4 10 3 5 -4 -4 -7 -2 -12 3 -12
6 0 11 14 11 31 0 19 -4 28 -11 23 -8 -4 -8 0 0 14 10 19 8 23 -18 37 -37 19
-47 19 -55 0z"/>
<path d="M1833 1043 c1 -63 -2 -108 -8 -110 -5 -1 -23 17 -38 42 -16 25 -33
45 -38 45 -16 0 -10 -15 12 -28 12 -7 19 -16 16 -19 -3 -2 1 -12 8 -21 8 -10
23 -28 34 -42 10 -14 22 -23 24 -20 3 3 7 62 9 133 2 93 0 127 -9 127 -8 0
-11 -30 -10 -107z"/>
<path d="M831 978 c-2 -7 -5 -56 -8 -110 -4 -94 -4 -96 19 -104 32 -10 87 -14
92 -6 2 4 -1 36 -6 72 -5 36 -11 76 -12 90 -2 14 -4 28 -5 32 -1 8 -55 38 -69
38 -5 0 -10 -6 -11 -12z"/>
<path d="M1030 798 c0 -5 -5 -6 -10 -3 -13 8 -40 -13 -40 -31 0 -8 10 -14 25
-14 14 0 25 6 25 13 0 9 2 9 8 -1 6 -8 22 -10 55 -6 41 6 47 10 47 31 0 23 -3
24 -55 22 -30 -1 -55 -6 -55 -11z"/>
<path d="M1680 769 c0 -5 5 -7 10 -4 6 3 10 8 10 11 0 2 -4 4 -10 4 -5 0 -10
-5 -10 -11z"/>
<path d="M277 473 c-23 -27 -35 -38 -57 -53 -29 -20 -45 -61 -28 -72 9 -5 9
-8 1 -8 -6 0 -9 -8 -6 -18 6 -25 94 -55 139 -46 41 8 51 25 54 99 4 81 1 103
-10 85 -8 -13 -10 -12 -10 3 0 9 -6 18 -12 18 -7 1 -24 3 -36 4 -13 1 -29 -4
-35 -12z m84 -136 c-10 -9 -11 -8 -5 6 3 10 9 15 12 12 3 -3 0 -11 -7 -18z"/>
<path d="M112 340 c-18 -22 -29 -40 -23 -40 5 0 24 18 41 40 41 52 25 52 -18
0z"/>
<path d="M211 229 c-5 -13 -16 -41 -24 -62 -9 -20 -17 -41 -18 -45 -1 -4 -4
-13 -7 -20 -2 -7 -2 -15 1 -18 6 -7 38 60 57 119 13 42 6 64 -9 26z"/>
<path d="M260 215 c0 -14 2 -25 4 -25 2 0 6 11 8 25 3 14 1 25 -3 25 -5 0 -9
-11 -9 -25z"/>
<path d="M341 194 c0 -11 3 -14 6 -6 3 7 2 16 -1 19 -3 4 -6 -2 -5 -13z"/>
<path d="M342 145 c0 -16 2 -22 5 -12 2 9 2 23 0 30 -3 6 -5 -1 -5 -18z"/>
<path d="M251 94 c0 -11 3 -14 6 -6 3 7 2 16 -1 19 -3 4 -6 -2 -5 -13z"/>
</g>
</svg>
